<mxfile host="app.diagrams.net" modified="2022-10-30T12:13:18.364Z" agent="5.0 (Windows NT 10.0; Win64; x64) AppleWebKit/537.36 (KHTML, like Gecko) Chrome/106.0.0.0 Safari/537.36" etag="YuK8InasJzWzs3LP55zI" version="20.5.1" type="github">
  <diagram id="V44vgC85Xr9zjTKgFqXy" name="페이지-1">
    <mxGraphModel dx="1051" dy="560" grid="1" gridSize="10" guides="1" tooltips="1" connect="1" arrows="1" fold="1" page="1" pageScale="1" pageWidth="827" pageHeight="1169" math="0" shadow="0">
      <root>
        <mxCell id="0" />
        <mxCell id="1" parent="0" />
        <mxCell id="OUXlp0eqUI5RNmwmJQa5-26" value="" style="rounded=0;whiteSpace=wrap;html=1;fillColor=#dae8fc;strokeColor=#6c8ebf;opacity=50;" parent="1" vertex="1">
          <mxGeometry x="520" y="190" width="320" height="310" as="geometry" />
        </mxCell>
        <mxCell id="OUXlp0eqUI5RNmwmJQa5-1" value="객체" style="swimlane;startSize=23;" parent="1" vertex="1">
          <mxGeometry x="274" y="230" width="140" height="90" as="geometry" />
        </mxCell>
        <mxCell id="OUXlp0eqUI5RNmwmJQa5-16" value="- 전략 객체" style="text;html=1;align=left;verticalAlign=middle;resizable=0;points=[];autosize=1;strokeColor=#6c8ebf;fillColor=#dae8fc;" parent="OUXlp0eqUI5RNmwmJQa5-1" vertex="1">
          <mxGeometry x="6" y="30" width="80" height="30" as="geometry" />
        </mxCell>
        <mxCell id="OUXlp0eqUI5RNmwmJQa5-20" style="edgeStyle=orthogonalEdgeStyle;rounded=0;orthogonalLoop=1;jettySize=auto;html=1;" parent="1" source="OUXlp0eqUI5RNmwmJQa5-9" edge="1">
          <mxGeometry relative="1" as="geometry">
            <mxPoint x="680" y="390" as="targetPoint" />
            <Array as="points">
              <mxPoint x="600" y="390" />
            </Array>
          </mxGeometry>
        </mxCell>
        <mxCell id="OUXlp0eqUI5RNmwmJQa5-22" style="edgeStyle=orthogonalEdgeStyle;rounded=0;orthogonalLoop=1;jettySize=auto;html=1;entryX=0;entryY=0.5;entryDx=0;entryDy=0;" parent="1" source="OUXlp0eqUI5RNmwmJQa5-9" target="OUXlp0eqUI5RNmwmJQa5-18" edge="1">
          <mxGeometry relative="1" as="geometry">
            <Array as="points">
              <mxPoint x="600" y="450" />
            </Array>
          </mxGeometry>
        </mxCell>
        <mxCell id="OUXlp0eqUI5RNmwmJQa5-17" value="행위 1-1" style="swimlane;" parent="1" vertex="1">
          <mxGeometry x="680" y="320" width="140" height="80" as="geometry" />
        </mxCell>
        <mxCell id="OUXlp0eqUI5RNmwmJQa5-18" value="행위 1-2" style="swimlane;" parent="1" vertex="1">
          <mxGeometry x="680" y="410" width="140" height="80" as="geometry" />
        </mxCell>
        <mxCell id="OUXlp0eqUI5RNmwmJQa5-24" value="구현" style="text;html=1;align=center;verticalAlign=middle;resizable=0;points=[];autosize=1;strokeColor=none;fillColor=none;" parent="1" vertex="1">
          <mxGeometry x="615" y="365" width="50" height="30" as="geometry" />
        </mxCell>
        <mxCell id="OUXlp0eqUI5RNmwmJQa5-25" value="구현" style="text;html=1;align=center;verticalAlign=middle;resizable=0;points=[];autosize=1;strokeColor=none;fillColor=none;" parent="1" vertex="1">
          <mxGeometry x="615" y="426" width="50" height="30" as="geometry" />
        </mxCell>
        <mxCell id="OUXlp0eqUI5RNmwmJQa5-9" value="&lt;&lt;interface&gt;&gt;&#xa;행위 1" style="swimlane;startSize=30;" parent="1" vertex="1">
          <mxGeometry x="530" y="230" width="140" height="90" as="geometry" />
        </mxCell>
        <mxCell id="OUXlp0eqUI5RNmwmJQa5-29" value="Client" style="shape=umlActor;verticalLabelPosition=bottom;verticalAlign=top;html=1;outlineConnect=0;opacity=50;" parent="1" vertex="1">
          <mxGeometry x="384" y="416" width="30" height="50" as="geometry" />
        </mxCell>
        <mxCell id="OUXlp0eqUI5RNmwmJQa5-32" value="" style="curved=1;endArrow=classic;html=1;rounded=0;exitX=0;exitY=0.75;exitDx=0;exitDy=0;entryX=0.517;entryY=1.05;entryDx=0;entryDy=0;entryPerimeter=0;strokeColor=#8C8C8C;" parent="1" source="OUXlp0eqUI5RNmwmJQa5-26" target="OUXlp0eqUI5RNmwmJQa5-16" edge="1">
          <mxGeometry width="50" height="50" relative="1" as="geometry">
            <mxPoint x="560" y="510" as="sourcePoint" />
            <mxPoint x="400" y="510" as="targetPoint" />
            <Array as="points">
              <mxPoint x="340" y="440" />
            </Array>
          </mxGeometry>
        </mxCell>
        <mxCell id="OUXlp0eqUI5RNmwmJQa5-50" value="" style="rounded=0;whiteSpace=wrap;html=1;fillColor=#dae8fc;strokeColor=#6c8ebf;opacity=50;" parent="1" vertex="1">
          <mxGeometry x="520" y="630" width="320" height="320" as="geometry" />
        </mxCell>
        <mxCell id="OUXlp0eqUI5RNmwmJQa5-51" style="edgeStyle=orthogonalEdgeStyle;rounded=0;orthogonalLoop=1;jettySize=auto;html=1;" parent="1" source="OUXlp0eqUI5RNmwmJQa5-57" edge="1">
          <mxGeometry relative="1" as="geometry">
            <mxPoint x="680" y="840" as="targetPoint" />
            <Array as="points">
              <mxPoint x="600" y="840" />
            </Array>
          </mxGeometry>
        </mxCell>
        <mxCell id="OUXlp0eqUI5RNmwmJQa5-52" style="edgeStyle=orthogonalEdgeStyle;rounded=0;orthogonalLoop=1;jettySize=auto;html=1;entryX=0;entryY=0.5;entryDx=0;entryDy=0;" parent="1" source="OUXlp0eqUI5RNmwmJQa5-57" target="OUXlp0eqUI5RNmwmJQa5-54" edge="1">
          <mxGeometry relative="1" as="geometry">
            <Array as="points">
              <mxPoint x="600" y="900" />
            </Array>
          </mxGeometry>
        </mxCell>
        <mxCell id="OUXlp0eqUI5RNmwmJQa5-53" value="RailRoadStrategy" style="swimlane;" parent="1" vertex="1">
          <mxGeometry x="680" y="770" width="140" height="80" as="geometry" />
        </mxCell>
        <mxCell id="OUXlp0eqUI5RNmwmJQa5-54" value="RoadStrategy" style="swimlane;" parent="1" vertex="1">
          <mxGeometry x="680" y="860" width="140" height="80" as="geometry" />
        </mxCell>
        <mxCell id="OUXlp0eqUI5RNmwmJQa5-66" value="+ move()" style="text;html=1;align=left;verticalAlign=middle;resizable=0;points=[];autosize=1;strokeColor=#6c8ebf;fillColor=#dae8fc;" parent="OUXlp0eqUI5RNmwmJQa5-54" vertex="1">
          <mxGeometry x="5" y="30" width="70" height="30" as="geometry" />
        </mxCell>
        <mxCell id="OUXlp0eqUI5RNmwmJQa5-55" value="구현" style="text;html=1;align=center;verticalAlign=middle;resizable=0;points=[];autosize=1;strokeColor=none;fillColor=none;" parent="1" vertex="1">
          <mxGeometry x="615" y="815" width="50" height="30" as="geometry" />
        </mxCell>
        <mxCell id="OUXlp0eqUI5RNmwmJQa5-56" value="구현" style="text;html=1;align=center;verticalAlign=middle;resizable=0;points=[];autosize=1;strokeColor=none;fillColor=none;" parent="1" vertex="1">
          <mxGeometry x="615" y="876" width="50" height="30" as="geometry" />
        </mxCell>
        <mxCell id="OUXlp0eqUI5RNmwmJQa5-57" value="&lt;&lt;interface&gt;&gt;&#xa;TransportStrategy" style="swimlane;startSize=30;" parent="1" vertex="1">
          <mxGeometry x="530" y="680" width="140" height="90" as="geometry" />
        </mxCell>
        <mxCell id="OUXlp0eqUI5RNmwmJQa5-59" value="+ move()" style="text;html=1;align=left;verticalAlign=middle;resizable=0;points=[];autosize=1;strokeColor=#6c8ebf;fillColor=#dae8fc;" parent="OUXlp0eqUI5RNmwmJQa5-57" vertex="1">
          <mxGeometry x="10" y="40" width="70" height="30" as="geometry" />
        </mxCell>
        <mxCell id="OUXlp0eqUI5RNmwmJQa5-65" value="+ move()" style="text;html=1;align=left;verticalAlign=middle;resizable=0;points=[];autosize=1;strokeColor=#6c8ebf;fillColor=#dae8fc;" parent="1" vertex="1">
          <mxGeometry x="685" y="800" width="70" height="30" as="geometry" />
        </mxCell>
        <mxCell id="OUXlp0eqUI5RNmwmJQa5-67" value="선로를 따라 움직인다." style="shape=callout;whiteSpace=wrap;html=1;perimeter=calloutPerimeter;opacity=50;size=30;position=0.17;position2=0;base=20;" parent="1" vertex="1">
          <mxGeometry x="810" y="690" width="120" height="80" as="geometry" />
        </mxCell>
        <mxCell id="OUXlp0eqUI5RNmwmJQa5-68" value="도로를 따라 움직인다." style="shape=callout;whiteSpace=wrap;html=1;perimeter=calloutPerimeter;opacity=50;size=26;position=0.14;position2=0;base=20;" parent="1" vertex="1">
          <mxGeometry x="830" y="800" width="120" height="76" as="geometry" />
        </mxCell>
        <mxCell id="OUXlp0eqUI5RNmwmJQa5-69" value="&lt;b&gt;&lt;font style=&quot;font-size: 14px;&quot;&gt;전략&lt;/font&gt;&lt;/b&gt;" style="rounded=0;whiteSpace=wrap;html=1;opacity=50;" parent="1" vertex="1">
          <mxGeometry x="520" y="190" width="320" height="30" as="geometry" />
        </mxCell>
        <mxCell id="OUXlp0eqUI5RNmwmJQa5-70" value="&lt;span style=&quot;font-size: 14px;&quot;&gt;&lt;b&gt;운송 전략&lt;/b&gt;&lt;/span&gt;" style="rounded=0;whiteSpace=wrap;html=1;opacity=50;" parent="1" vertex="1">
          <mxGeometry x="520" y="630" width="320" height="30" as="geometry" />
        </mxCell>
        <mxCell id="OUXlp0eqUI5RNmwmJQa5-71" value="Bus" style="swimlane;startSize=23;" parent="1" vertex="1">
          <mxGeometry x="250" y="680" width="170" height="150" as="geometry" />
        </mxCell>
        <mxCell id="OUXlp0eqUI5RNmwmJQa5-72" value="+ move()" style="text;html=1;align=left;verticalAlign=middle;resizable=0;points=[];autosize=1;strokeColor=#6c8ebf;fillColor=#dae8fc;" parent="OUXlp0eqUI5RNmwmJQa5-71" vertex="1">
          <mxGeometry x="10" y="110" width="70" height="30" as="geometry" />
        </mxCell>
        <mxCell id="OUXlp0eqUI5RNmwmJQa5-80" value="&lt;font style=&quot;font-size: 12px;&quot;&gt;- _transportStrategy&lt;/font&gt;" style="rounded=0;whiteSpace=wrap;html=1;fontSize=14;opacity=50;align=left;" parent="OUXlp0eqUI5RNmwmJQa5-71" vertex="1">
          <mxGeometry x="10" y="30" width="120" height="30" as="geometry" />
        </mxCell>
        <mxCell id="OUXlp0eqUI5RNmwmJQa5-81" value="&lt;font style=&quot;font-size: 12px;&quot;&gt;+ setTransportStrategy()&lt;/font&gt;" style="rounded=0;whiteSpace=wrap;html=1;fontSize=14;opacity=50;align=left;" parent="OUXlp0eqUI5RNmwmJQa5-71" vertex="1">
          <mxGeometry x="10" y="70" width="140" height="30" as="geometry" />
        </mxCell>
        <mxCell id="OUXlp0eqUI5RNmwmJQa5-83" value="&lt;font style=&quot;font-size: 11px;&quot;&gt;주입된 운송 전략의 move() 메써드를 호출할 뿐&lt;/font&gt;" style="shape=callout;whiteSpace=wrap;html=1;perimeter=calloutPerimeter;fontSize=12;opacity=50;position2=1;base=20;size=30;position=0.67;" parent="1" vertex="1">
          <mxGeometry x="115" y="735" width="125" height="75" as="geometry" />
        </mxCell>
        <mxCell id="OUXlp0eqUI5RNmwmJQa5-82" value="&lt;font style=&quot;font-size: 11px;&quot;&gt;client에 의해 전략 주입&lt;/font&gt;" style="shape=callout;whiteSpace=wrap;html=1;perimeter=calloutPerimeter;fontSize=12;opacity=50;position2=1;base=20;size=30;position=0.67;" parent="1" vertex="1">
          <mxGeometry x="140" y="640" width="120" height="80" as="geometry" />
        </mxCell>
        <mxCell id="OUXlp0eqUI5RNmwmJQa5-85" value="Client" style="shape=umlActor;verticalLabelPosition=bottom;verticalAlign=top;html=1;outlineConnect=0;opacity=50;" parent="1" vertex="1">
          <mxGeometry x="400" y="876" width="30" height="50" as="geometry" />
        </mxCell>
        <mxCell id="OUXlp0eqUI5RNmwmJQa5-86" value="" style="curved=1;endArrow=classic;html=1;rounded=0;exitX=0;exitY=0.75;exitDx=0;exitDy=0;entryX=0.5;entryY=1;entryDx=0;entryDy=0;strokeColor=#8C8C8C;" parent="1" target="OUXlp0eqUI5RNmwmJQa5-80" edge="1">
          <mxGeometry width="50" height="50" relative="1" as="geometry">
            <mxPoint x="520" y="873.75" as="sourcePoint" />
            <mxPoint x="321.3600000000001" y="742.7499999999999" as="targetPoint" />
            <Array as="points">
              <mxPoint x="340" y="891.25" />
            </Array>
          </mxGeometry>
        </mxCell>
      </root>
    </mxGraphModel>
  </diagram>
</mxfile>
